<svg xmlns="http://www.w3.org/2000/svg" xmlns:xlink="http://www.w3.org/1999/xlink" width="1024" height="1024">
  <defs>
    <linearGradient id="a">
      <stop offset="0" stop-color="#4ab300"/>
      <stop offset="1" stop-color="#86b300"/>
    </linearGradient>
    <linearGradient xlink:href="#a" id="b" x1="238.0486" x2="803.66766" y1="184.18706" y2="843.43213" gradientUnits="userSpaceOnUse"/>
  </defs>
  <path fill="url(#b)" d="M601.81445 270.49609a53.485847 53.485847 0 0 0-11.05664 1.93164L252.2832 369.13477a53.480499 53.480499 0 0 0-4.49804 2.09179 53.480499 53.480499 0 0 0-4.72657 1.4961 53.480499 53.480499 0 0 0-2.81054 2.00976 53.480499 53.480499 0 0 0-6.76953 4.83985 53.480499 53.480499 0 0 0-6.08399 5.66406 53.480499 53.480499 0 0 0-4.9375 6.6875 53.480499 53.480499 0 0 0-4.04101 7.27539 53.480499 53.480499 0 0 0-2.62891 7.88476 53.480499 53.480499 0 0 0-1.59375 8.16211 53.480499 53.480499 0 0 0-.06445 8.32032 53.480499 53.480499 0 0 0 1.00586 8.25 53.480499 53.480499 0 0 0 .41796 3.43359 53.480499 53.480499 0 0 0 2.0918 4.49609 53.480499 53.480499 0 0 0 1.49609 4.72852L364.20117 734.5957a53.485847 53.485847 0 0 0 1.11914 1.62891 53.480499 53.480499 0 0 0 3.90625 5.80664 53.485847 53.485847 0 0 0 2.08203 2.90625 53.485847 53.485847 0 0 0 2.47461 2.83203 53.480499 53.480499 0 0 0 4.08789 3.58399 53.485847 53.485847 0 0 0 3.24024 2.48632 53.485847 53.485847 0 0 0 3.89844 2.8086 53.480499 53.480499 0 0 0 3.46289 1.73242 53.485847 53.485847 0 0 0 4.32031 1.70703 53.480499 53.480499 0 0 0 .20508.08008 53.485847 53.485847 0 0 0 5.21875 2.0625 53.480499 53.480499 0 0 0 2.22461.48828 53.485847 53.485847 0 0 0 1.11523.12891 53.480499 53.480499 0 0 0 6.21484.71289 53.485847 53.485847 0 0 0 4.66993.53711 53.480499 53.480499 0 0 0 6.32226-.8125 53.485847 53.485847 0 0 0 6.16406-.91602 53.480499 53.480499 0 0 0 1.04297-.1543 53.485847 53.485847 0 0 0 .69922-.10546 53.480499 53.480499 0 0 0 .0586-.00782l338.4746-96.70703a53.480499 53.480499 0 0 0 36.73047-66.11523 53.480499 53.480499 0 0 0-49.5039-38.75391 53.480499 53.480499 0 0 0-16.61133 2.02344l-221.57813 63.30859 139.04493-278.08984a53.485847 53.485847 0 0 0-51.47071-77.27149zm-98.5664 138.17579-57.59571 115.18945-56.14843 22.16406-45.875-91.74805 159.61914-45.60546z" color="#000" style="-inkscape-stroke:none"/>
</svg>
